<mxfile host="app.diagrams.net" modified="2024-07-12T02:34:16.499Z" agent="Mozilla/5.0 (Windows NT 10.0; Win64; x64) AppleWebKit/537.36 (KHTML, like Gecko) Chrome/126.0.0.0 Safari/537.36" etag="bDgCDy587tJQsFpM5AdD" version="24.6.4" type="device">
  <diagram name="Page-1" id="Nd0kubOsKnbU6qBIg2F_">
    <mxGraphModel dx="1900" dy="583" grid="1" gridSize="10" guides="1" tooltips="1" connect="1" arrows="1" fold="1" page="1" pageScale="1" pageWidth="850" pageHeight="1100" math="0" shadow="0">
      <root>
        <mxCell id="0" />
        <mxCell id="1" parent="0" />
        <mxCell id="-K5qhgTDKlDg5EbTOw13-1" value="AWS Account" style="points=[[0,0],[0.25,0],[0.5,0],[0.75,0],[1,0],[1,0.25],[1,0.5],[1,0.75],[1,1],[0.75,1],[0.5,1],[0.25,1],[0,1],[0,0.75],[0,0.5],[0,0.25]];outlineConnect=0;gradientColor=none;html=1;whiteSpace=wrap;fontSize=12;fontStyle=0;container=1;pointerEvents=0;collapsible=0;recursiveResize=0;shape=mxgraph.aws4.group;grIcon=mxgraph.aws4.group_account;strokeColor=#CD2264;fillColor=none;verticalAlign=top;align=left;spacingLeft=30;fontColor=#CD2264;dashed=0;" parent="1" vertex="1">
          <mxGeometry x="-240" y="40" width="970" height="560" as="geometry" />
        </mxCell>
        <mxCell id="-K5qhgTDKlDg5EbTOw13-2" value="&lt;b&gt;&lt;font color=&quot;#3323af&quot;&gt;expense-vpc&lt;/font&gt;&lt;/b&gt;" style="points=[[0,0],[0.25,0],[0.5,0],[0.75,0],[1,0],[1,0.25],[1,0.5],[1,0.75],[1,1],[0.75,1],[0.5,1],[0.25,1],[0,1],[0,0.75],[0,0.5],[0,0.25]];outlineConnect=0;gradientColor=none;html=1;whiteSpace=wrap;fontSize=12;fontStyle=0;container=1;pointerEvents=0;collapsible=0;recursiveResize=0;shape=mxgraph.aws4.group;grIcon=mxgraph.aws4.group_vpc2;strokeColor=#8C4FFF;fillColor=none;verticalAlign=top;align=left;spacingLeft=30;fontColor=#AAB7B8;dashed=0;" parent="-K5qhgTDKlDg5EbTOw13-1" vertex="1">
          <mxGeometry x="80" y="80" width="840" height="440" as="geometry" />
        </mxCell>
        <mxCell id="-K5qhgTDKlDg5EbTOw13-6" value="" style="rounded=1;arcSize=10;dashed=1;strokeColor=#4fc951;fillColor=none;gradientColor=none;dashPattern=8 4;strokeWidth=2;" parent="-K5qhgTDKlDg5EbTOw13-2" vertex="1">
          <mxGeometry x="42.629999999999995" y="220" width="754.75" height="110" as="geometry" />
        </mxCell>
        <mxCell id="-K5qhgTDKlDg5EbTOw13-5" value="" style="rounded=1;arcSize=10;dashed=1;strokeColor=#F59D56;fillColor=none;gradientColor=none;dashPattern=8 4;strokeWidth=2;" parent="-K5qhgTDKlDg5EbTOw13-2" vertex="1">
          <mxGeometry x="45.25" y="30" width="754.75" height="110" as="geometry" />
        </mxCell>
        <mxCell id="-K5qhgTDKlDg5EbTOw13-3" value="Public subnet" style="points=[[0,0],[0.25,0],[0.5,0],[0.75,0],[1,0],[1,0.25],[1,0.5],[1,0.75],[1,1],[0.75,1],[0.5,1],[0.25,1],[0,1],[0,0.75],[0,0.5],[0,0.25]];outlineConnect=0;gradientColor=none;html=1;whiteSpace=wrap;fontSize=12;fontStyle=0;container=1;pointerEvents=0;collapsible=0;recursiveResize=0;shape=mxgraph.aws4.group;grIcon=mxgraph.aws4.group_security_group;grStroke=0;strokeColor=#7AA116;fillColor=#F2F6E8;verticalAlign=top;align=left;spacingLeft=30;fontColor=#248814;dashed=0;" parent="-K5qhgTDKlDg5EbTOw13-2" vertex="1">
          <mxGeometry x="80" y="40" width="130" height="360" as="geometry" />
        </mxCell>
        <mxCell id="j5B-vh-n2R6RYfznFofy-1" value="" style="outlineConnect=0;dashed=0;verticalLabelPosition=bottom;verticalAlign=top;align=center;html=1;shape=mxgraph.aws3.application_load_balancer;fillColor=#F58534;gradientColor=none;" vertex="1" parent="-K5qhgTDKlDg5EbTOw13-3">
          <mxGeometry x="47" y="154" width="69" height="72" as="geometry" />
        </mxCell>
        <mxCell id="j5B-vh-n2R6RYfznFofy-2" value="" style="image;aspect=fixed;html=1;points=[];align=center;fontSize=12;image=img/lib/azure2/security/Application_Security_Groups.svg;" vertex="1" parent="-K5qhgTDKlDg5EbTOw13-3">
          <mxGeometry x="65.03" y="114" width="32.94" height="40" as="geometry" />
        </mxCell>
        <mxCell id="-K5qhgTDKlDg5EbTOw13-4" value="Private subnet" style="points=[[0,0],[0.25,0],[0.5,0],[0.75,0],[1,0],[1,0.25],[1,0.5],[1,0.75],[1,1],[0.75,1],[0.5,1],[0.25,1],[0,1],[0,0.75],[0,0.5],[0,0.25]];outlineConnect=0;gradientColor=none;html=1;whiteSpace=wrap;fontSize=12;fontStyle=0;container=1;pointerEvents=0;collapsible=0;recursiveResize=0;shape=mxgraph.aws4.group;grIcon=mxgraph.aws4.group_security_group;grStroke=0;strokeColor=#00A4A6;fillColor=#E6F6F7;verticalAlign=top;align=left;spacingLeft=30;fontColor=#147EBA;dashed=0;" parent="-K5qhgTDKlDg5EbTOw13-2" vertex="1">
          <mxGeometry x="270" y="40" width="290" height="390" as="geometry" />
        </mxCell>
        <mxCell id="j5B-vh-n2R6RYfznFofy-3" value="" style="image;aspect=fixed;html=1;points=[];align=center;fontSize=12;image=img/lib/azure2/security/Application_Security_Groups.svg;" vertex="1" parent="-K5qhgTDKlDg5EbTOw13-4">
          <mxGeometry x="230" y="100" width="32.94" height="40" as="geometry" />
        </mxCell>
        <mxCell id="j5B-vh-n2R6RYfznFofy-16" value="" style="group" vertex="1" connectable="0" parent="-K5qhgTDKlDg5EbTOw13-4">
          <mxGeometry x="120" y="270" width="130" height="120" as="geometry" />
        </mxCell>
        <mxCell id="j5B-vh-n2R6RYfznFofy-17" value="" style="rounded=0;whiteSpace=wrap;html=1;" vertex="1" parent="j5B-vh-n2R6RYfznFofy-16">
          <mxGeometry y="-20" width="130" height="100" as="geometry" />
        </mxCell>
        <mxCell id="j5B-vh-n2R6RYfznFofy-18" value="" style="sketch=0;points=[[0,0,0],[0.25,0,0],[0.5,0,0],[0.75,0,0],[1,0,0],[0,1,0],[0.25,1,0],[0.5,1,0],[0.75,1,0],[1,1,0],[0,0.25,0],[0,0.5,0],[0,0.75,0],[1,0.25,0],[1,0.5,0],[1,0.75,0]];outlineConnect=0;fontColor=#232F3E;fillColor=#ED7100;strokeColor=#ffffff;dashed=0;verticalLabelPosition=bottom;verticalAlign=top;align=center;html=1;fontSize=12;fontStyle=0;aspect=fixed;shape=mxgraph.aws4.resourceIcon;resIcon=mxgraph.aws4.ec2;" vertex="1" parent="j5B-vh-n2R6RYfznFofy-16">
          <mxGeometry x="12.5" y="12.5" width="45" height="45" as="geometry" />
        </mxCell>
        <mxCell id="j5B-vh-n2R6RYfznFofy-19" value="" style="sketch=0;points=[[0,0,0],[0.25,0,0],[0.5,0,0],[0.75,0,0],[1,0,0],[0,1,0],[0.25,1,0],[0.5,1,0],[0.75,1,0],[1,1,0],[0,0.25,0],[0,0.5,0],[0,0.75,0],[1,0.25,0],[1,0.5,0],[1,0.75,0]];outlineConnect=0;fontColor=#232F3E;fillColor=#ED7100;strokeColor=#ffffff;dashed=0;verticalLabelPosition=bottom;verticalAlign=top;align=center;html=1;fontSize=12;fontStyle=0;aspect=fixed;shape=mxgraph.aws4.resourceIcon;resIcon=mxgraph.aws4.ec2;" vertex="1" parent="j5B-vh-n2R6RYfznFofy-16">
          <mxGeometry x="70" y="12.5" width="45" height="45" as="geometry" />
        </mxCell>
        <mxCell id="j5B-vh-n2R6RYfznFofy-20" value="" style="sketch=0;outlineConnect=0;fontColor=#232F3E;gradientColor=none;fillColor=#DD344C;strokeColor=none;dashed=0;verticalLabelPosition=bottom;verticalAlign=top;align=center;html=1;fontSize=12;fontStyle=0;aspect=fixed;pointerEvents=1;shape=mxgraph.aws4.role;" vertex="1" parent="j5B-vh-n2R6RYfznFofy-16">
          <mxGeometry x="13.18" y="-12.5" width="44.32" height="25" as="geometry" />
        </mxCell>
        <mxCell id="j5B-vh-n2R6RYfznFofy-21" value="" style="sketch=0;outlineConnect=0;fontColor=#232F3E;gradientColor=none;fillColor=#DD344C;strokeColor=none;dashed=0;verticalLabelPosition=bottom;verticalAlign=top;align=center;html=1;fontSize=12;fontStyle=0;aspect=fixed;pointerEvents=1;shape=mxgraph.aws4.role;" vertex="1" parent="j5B-vh-n2R6RYfznFofy-16">
          <mxGeometry x="70.68" y="-12.5" width="44.32" height="25" as="geometry" />
        </mxCell>
        <mxCell id="-K5qhgTDKlDg5EbTOw13-7" value="Private subnet" style="points=[[0,0],[0.25,0],[0.5,0],[0.75,0],[1,0],[1,0.25],[1,0.5],[1,0.75],[1,1],[0.75,1],[0.5,1],[0.25,1],[0,1],[0,0.75],[0,0.5],[0,0.25]];outlineConnect=0;gradientColor=none;html=1;whiteSpace=wrap;fontSize=12;fontStyle=0;container=1;pointerEvents=0;collapsible=0;recursiveResize=0;shape=mxgraph.aws4.group;grIcon=mxgraph.aws4.group_security_group;grStroke=0;strokeColor=#00A4A6;fillColor=#E6F6F7;verticalAlign=top;align=left;spacingLeft=30;fontColor=#147EBA;dashed=0;" parent="-K5qhgTDKlDg5EbTOw13-2" vertex="1">
          <mxGeometry x="610" y="40" width="170" height="360" as="geometry" />
        </mxCell>
        <mxCell id="j5B-vh-n2R6RYfznFofy-8" style="edgeStyle=orthogonalEdgeStyle;rounded=0;orthogonalLoop=1;jettySize=auto;html=1;entryX=0.5;entryY=0;entryDx=0;entryDy=0;" edge="1" parent="-K5qhgTDKlDg5EbTOw13-2" source="-K5qhgTDKlDg5EbTOw13-8" target="-K5qhgTDKlDg5EbTOw13-10">
          <mxGeometry relative="1" as="geometry" />
        </mxCell>
        <mxCell id="-K5qhgTDKlDg5EbTOw13-8" value="&lt;font style=&quot;&quot; face=&quot;Verdana&quot;&gt;EKS&lt;/font&gt;" style="sketch=0;outlineConnect=0;fontColor=#232F3E;gradientColor=none;strokeColor=#ffffff;fillColor=#232F3E;dashed=0;verticalLabelPosition=middle;verticalAlign=bottom;align=center;html=1;whiteSpace=wrap;fontSize=10;fontStyle=1;spacing=3;shape=mxgraph.aws4.productIcon;prIcon=mxgraph.aws4.eks;" parent="-K5qhgTDKlDg5EbTOw13-2" vertex="1">
          <mxGeometry x="425" y="60" width="60" height="80" as="geometry" />
        </mxCell>
        <mxCell id="j5B-vh-n2R6RYfznFofy-10" style="edgeStyle=orthogonalEdgeStyle;rounded=0;orthogonalLoop=1;jettySize=auto;html=1;" edge="1" parent="-K5qhgTDKlDg5EbTOw13-2" source="j5B-vh-n2R6RYfznFofy-1" target="-K5qhgTDKlDg5EbTOw13-10">
          <mxGeometry relative="1" as="geometry" />
        </mxCell>
        <mxCell id="j5B-vh-n2R6RYfznFofy-4" value="" style="image;aspect=fixed;html=1;points=[];align=center;fontSize=12;image=img/lib/azure2/security/Application_Security_Groups.svg;" vertex="1" parent="-K5qhgTDKlDg5EbTOw13-2">
          <mxGeometry x="480" y="70" width="32.94" height="40" as="geometry" />
        </mxCell>
        <mxCell id="-K5qhgTDKlDg5EbTOw13-13" value="" style="group" parent="-K5qhgTDKlDg5EbTOw13-2" vertex="1" connectable="0">
          <mxGeometry x="390" y="200" width="130" height="120" as="geometry" />
        </mxCell>
        <mxCell id="-K5qhgTDKlDg5EbTOw13-10" value="" style="rounded=0;whiteSpace=wrap;html=1;" parent="-K5qhgTDKlDg5EbTOw13-13" vertex="1">
          <mxGeometry y="-20" width="130" height="100" as="geometry" />
        </mxCell>
        <mxCell id="-K5qhgTDKlDg5EbTOw13-11" value="" style="sketch=0;points=[[0,0,0],[0.25,0,0],[0.5,0,0],[0.75,0,0],[1,0,0],[0,1,0],[0.25,1,0],[0.5,1,0],[0.75,1,0],[1,1,0],[0,0.25,0],[0,0.5,0],[0,0.75,0],[1,0.25,0],[1,0.5,0],[1,0.75,0]];outlineConnect=0;fontColor=#232F3E;fillColor=#ED7100;strokeColor=#ffffff;dashed=0;verticalLabelPosition=bottom;verticalAlign=top;align=center;html=1;fontSize=12;fontStyle=0;aspect=fixed;shape=mxgraph.aws4.resourceIcon;resIcon=mxgraph.aws4.ec2;" parent="-K5qhgTDKlDg5EbTOw13-13" vertex="1">
          <mxGeometry x="12.5" y="12.5" width="45" height="45" as="geometry" />
        </mxCell>
        <mxCell id="-K5qhgTDKlDg5EbTOw13-12" value="" style="sketch=0;points=[[0,0,0],[0.25,0,0],[0.5,0,0],[0.75,0,0],[1,0,0],[0,1,0],[0.25,1,0],[0.5,1,0],[0.75,1,0],[1,1,0],[0,0.25,0],[0,0.5,0],[0,0.75,0],[1,0.25,0],[1,0.5,0],[1,0.75,0]];outlineConnect=0;fontColor=#232F3E;fillColor=#ED7100;strokeColor=#ffffff;dashed=0;verticalLabelPosition=bottom;verticalAlign=top;align=center;html=1;fontSize=12;fontStyle=0;aspect=fixed;shape=mxgraph.aws4.resourceIcon;resIcon=mxgraph.aws4.ec2;" parent="-K5qhgTDKlDg5EbTOw13-13" vertex="1">
          <mxGeometry x="70" y="12.5" width="45" height="45" as="geometry" />
        </mxCell>
        <mxCell id="j5B-vh-n2R6RYfznFofy-5" value="" style="sketch=0;outlineConnect=0;fontColor=#232F3E;gradientColor=none;fillColor=#DD344C;strokeColor=none;dashed=0;verticalLabelPosition=bottom;verticalAlign=top;align=center;html=1;fontSize=12;fontStyle=0;aspect=fixed;pointerEvents=1;shape=mxgraph.aws4.role;" vertex="1" parent="-K5qhgTDKlDg5EbTOw13-13">
          <mxGeometry x="13.18" y="-12.5" width="44.32" height="25" as="geometry" />
        </mxCell>
        <mxCell id="j5B-vh-n2R6RYfznFofy-6" value="" style="sketch=0;outlineConnect=0;fontColor=#232F3E;gradientColor=none;fillColor=#DD344C;strokeColor=none;dashed=0;verticalLabelPosition=bottom;verticalAlign=top;align=center;html=1;fontSize=12;fontStyle=0;aspect=fixed;pointerEvents=1;shape=mxgraph.aws4.role;" vertex="1" parent="-K5qhgTDKlDg5EbTOw13-13">
          <mxGeometry x="70.68" y="-12.5" width="44.32" height="25" as="geometry" />
        </mxCell>
        <mxCell id="j5B-vh-n2R6RYfznFofy-12" style="edgeStyle=orthogonalEdgeStyle;rounded=0;orthogonalLoop=1;jettySize=auto;html=1;" edge="1" parent="1" source="j5B-vh-n2R6RYfznFofy-11" target="j5B-vh-n2R6RYfznFofy-1">
          <mxGeometry relative="1" as="geometry" />
        </mxCell>
        <mxCell id="j5B-vh-n2R6RYfznFofy-11" value="" style="sketch=0;points=[[0,0,0],[0.25,0,0],[0.5,0,0],[0.75,0,0],[1,0,0],[0,1,0],[0.25,1,0],[0.5,1,0],[0.75,1,0],[1,1,0],[0,0.25,0],[0,0.5,0],[0,0.75,0],[1,0.25,0],[1,0.5,0],[1,0.75,0]];outlineConnect=0;fontColor=#232F3E;fillColor=#8C4FFF;strokeColor=#ffffff;dashed=0;verticalLabelPosition=bottom;verticalAlign=top;align=center;html=1;fontSize=12;fontStyle=0;aspect=fixed;shape=mxgraph.aws4.resourceIcon;resIcon=mxgraph.aws4.route_53;" vertex="1" parent="1">
          <mxGeometry x="-350" y="311" width="78" height="78" as="geometry" />
        </mxCell>
        <mxCell id="j5B-vh-n2R6RYfznFofy-13" value="" style="html=1;verticalLabelPosition=bottom;align=center;labelBackgroundColor=#ffffff;verticalAlign=top;strokeWidth=2;strokeColor=#0080F0;shadow=0;dashed=0;shape=mxgraph.ios7.icons.user;" vertex="1" parent="1">
          <mxGeometry x="-500" y="315.5" width="70" height="69" as="geometry" />
        </mxCell>
        <mxCell id="j5B-vh-n2R6RYfznFofy-14" style="edgeStyle=orthogonalEdgeStyle;rounded=0;orthogonalLoop=1;jettySize=auto;html=1;entryX=0;entryY=0.5;entryDx=0;entryDy=0;entryPerimeter=0;" edge="1" parent="1" source="j5B-vh-n2R6RYfznFofy-13" target="j5B-vh-n2R6RYfznFofy-11">
          <mxGeometry relative="1" as="geometry" />
        </mxCell>
      </root>
    </mxGraphModel>
  </diagram>
</mxfile>
